<?xml version='1.0' encoding='utf-8'?>
<!DOCTYPE svg PUBLIC '-//W3C//DTD SVG 1.1//EN' 'http://www.w3.org/Graphics/SVG/1.1/DTD/svg11.dtd'>
<svg version="1.1" xmlns="http://www.w3.org/2000/svg" viewBox="0 0 512 512" xmlns:xlink="http://www.w3.org/1999/xlink" enable-background="new 0 0 512 512">
  <g>
    <path d="m501,48.1c0-20.5-16.8-37.1-37.5-37.1h-415c-20.7,0-37.5,16.6-37.5,37.1v370.3c0,38 42.3,82.6 112.8,82.6h356.7c0,0 0,0 0,0 23.4-1.9 23.2-24 16.8-32 0,0 0-0.1-0.1-0.1-36.4-51.7-1.5-103.7 0.1-106 0,0 3.6-4.7 3.7-11.7v-303.1zm-449.2,3.7h408.3v278.9h-336.3c-27.6,0-52.6,7.1-72,19.1v-298zm0,364.1c0-24 33-44.3 72-44.3h324.2c-7.9,22.4-13.4,54.2-1,88.6h-323.2c-39,5.68434e-14-72-20.3-72-44.3z"/>
  </g>
</svg>
